<mxfile host="app.diagrams.net" modified="2021-04-08T14:23:18.886Z" agent="5.0 (Macintosh)" etag="OXjYT-Q4bve23sZyWjMH" version="14.5.8" type="github">
  <diagram id="tvBMbFpT31evSggDGeiL" name="Page-1">
    <mxGraphModel dx="913" dy="598" grid="1" gridSize="10" guides="1" tooltips="1" connect="1" arrows="1" fold="1" page="1" pageScale="1" pageWidth="827" pageHeight="1169" math="0" shadow="0">
      <root>
        <mxCell id="0" />
        <mxCell id="1" parent="0" />
      </root>
    </mxGraphModel>
  </diagram>
</mxfile>
